<?xml version="1.0" encoding="UTF-8" standalone="no"?>
<!DOCTYPE svg PUBLIC "-//W3C//DTD SVG 1.1//EN"
 "http://www.w3.org/Graphics/SVG/1.1/DTD/svg11.dtd">
<!-- Generated by graphviz version 14.1.5 (20260411.2331)
 -->
<!-- Title: ahb_sram_controller_fsm Pages: 1 -->
<svg width="746pt" height="185pt"
 viewBox="0.00 0.00 746.00 185.00" xmlns="http://www.w3.org/2000/svg" xmlns:xlink="http://www.w3.org/1999/xlink"><rect data-dark-mode-bg="true" width="100%" height="100%" fill="#ffffff"/>
<g id="graph0" class="graph" transform="scale(1 1) rotate(0) translate(4 180.63)">
<title>ahb_sram_controller_fsm</title>
<polygon fill="white" stroke="none" points="-4,4 -4,-180.63 741.56,-180.63 741.56,4 -4,4"/>
<!-- start -->
<g id="node1" class="node">
<title>start</title>
<ellipse fill="#444444" stroke="#444444" cx="5.4" cy="-70.69" rx="5.4" ry="5.4"/>
</g>
<!-- IDLE -->
<g id="node2" class="node">
<title>IDLE</title>
<ellipse fill="#f2f2f2" stroke="#444444" cx="84.57" cy="-70.69" rx="36.77" ry="23.69"/>
<text xml:space="preserve" text-anchor="middle" x="84.57" y="-72.04" font-family="Helvetica,sans-Serif" font-size="12.00">IDLE</text>
<text xml:space="preserve" text-anchor="middle" x="84.57" y="-59.29" font-family="Helvetica,sans-Serif" font-size="12.00">3&#39;b000</text>
</g>
<!-- start&#45;&gt;IDLE -->
<g id="edge1" class="edge">
<title>start&#45;&gt;IDLE</title>
<path fill="none" stroke="#444444" d="M11,-70.69C16.33,-70.69 25.73,-70.69 36.03,-70.69"/>
<polygon fill="#444444" stroke="#444444" points="35.9,-74.19 45.9,-70.69 35.9,-67.19 35.9,-74.19"/>
</g>
<!-- READ -->
<g id="node3" class="node">
<title>READ</title>
<ellipse fill="#fff7c8" stroke="#444444" cx="236.86" cy="-123.69" rx="36.77" ry="23.69"/>
<text xml:space="preserve" text-anchor="middle" x="236.86" y="-125.04" font-family="Helvetica,sans-Serif" font-size="12.00">READ</text>
<text xml:space="preserve" text-anchor="middle" x="236.86" y="-112.29" font-family="Helvetica,sans-Serif" font-size="12.00">3&#39;b010</text>
</g>
<!-- IDLE&#45;&gt;READ -->
<g id="edge2" class="edge">
<title>IDLE&#45;&gt;READ</title>
<path fill="none" stroke="#444444" d="M104.02,-91.06C113.59,-100.24 126.05,-110.23 139.34,-115.69 154.61,-121.96 172.36,-124.6 188.45,-125.47"/>
<polygon fill="#444444" stroke="#444444" points="188.19,-128.96 198.29,-125.77 188.4,-121.96 188.19,-128.96"/>
<text xml:space="preserve" text-anchor="middle" x="160.71" y="-126.63" font-family="Helvetica,sans-Serif" font-size="10.00" fill="#222222"> aph_read</text>
</g>
<!-- WRITE -->
<g id="node4" class="node">
<title>WRITE</title>
<ellipse fill="#ffd9a8" stroke="#444444" cx="393.52" cy="-57.69" rx="38.89" ry="23.69"/>
<text xml:space="preserve" text-anchor="middle" x="393.52" y="-59.04" font-family="Helvetica,sans-Serif" font-size="12.00">WRITE</text>
<text xml:space="preserve" text-anchor="middle" x="393.52" y="-46.29" font-family="Helvetica,sans-Serif" font-size="12.00">3&#39;b100</text>
</g>
<!-- IDLE&#45;&gt;WRITE -->
<g id="edge3" class="edge">
<title>IDLE&#45;&gt;WRITE</title>
<path fill="none" stroke="#444444" d="M121.68,-69.16C176.62,-66.83 281.32,-62.4 343.22,-59.78"/>
<polygon fill="#444444" stroke="#444444" points="343.27,-63.28 353.11,-59.36 342.97,-56.28 343.27,-63.28"/>
<text xml:space="preserve" text-anchor="middle" x="236.86" y="-67.44" font-family="Helvetica,sans-Serif" font-size="10.00" fill="#222222"> aph_write</text>
</g>
<!-- READ&#45;&gt;IDLE -->
<g id="edge6" class="edge">
<title>READ&#45;&gt;IDLE</title>
<path fill="none" stroke="#444444" d="M205.27,-111.24C197.72,-108.27 189.64,-105.17 182.09,-102.44 164.67,-96.14 145.3,-89.66 128.52,-84.22"/>
<polygon fill="#444444" stroke="#444444" points="129.94,-81 119.35,-81.27 127.79,-87.66 129.94,-81"/>
<text xml:space="preserve" text-anchor="middle" x="160.71" y="-104.19" font-family="Helvetica,sans-Serif" font-size="10.00" fill="#222222"> idle</text>
</g>
<!-- READ&#45;&gt;READ -->
<g id="edge4" class="edge">
<title>READ&#45;&gt;READ</title>
<path fill="none" stroke="#444444" d="M222.86,-145.99C221.34,-156.34 226,-165.38 236.86,-165.38 243.3,-165.38 247.57,-162.19 249.65,-157.43"/>
<polygon fill="#444444" stroke="#444444" points="253.13,-157.81 250.69,-147.5 246.17,-157.07 253.13,-157.81"/>
<text xml:space="preserve" text-anchor="middle" x="236.86" y="-167.13" font-family="Helvetica,sans-Serif" font-size="10.00" fill="#222222"> aph_read</text>
</g>
<!-- READ&#45;&gt;WRITE -->
<g id="edge5" class="edge">
<title>READ&#45;&gt;WRITE</title>
<path fill="none" stroke="#444444" d="M269.24,-111.98C288.78,-104.52 314.34,-94.46 336.63,-84.69 341.86,-82.39 347.32,-79.89 352.7,-77.37"/>
<polygon fill="#444444" stroke="#444444" points="353.95,-80.65 361.47,-73.18 350.93,-74.33 353.95,-80.65"/>
<text xml:space="preserve" text-anchor="middle" x="314.13" y="-104.27" font-family="Helvetica,sans-Serif" font-size="10.00" fill="#222222"> aph_write</text>
</g>
<!-- WRITE&#45;&gt;IDLE -->
<g id="edge9" class="edge">
<title>WRITE&#45;&gt;IDLE</title>
<path fill="none" stroke="#444444" d="M355.19,-52.32C316.36,-47.53 253.85,-42.04 200.09,-47.44 176.76,-49.78 151.14,-54.75 130.07,-59.49"/>
<polygon fill="#444444" stroke="#444444" points="129.3,-56.08 120.35,-61.75 130.88,-62.9 129.3,-56.08"/>
<text xml:space="preserve" text-anchor="middle" x="236.86" y="-49.19" font-family="Helvetica,sans-Serif" font-size="10.00" fill="#222222"> idle</text>
</g>
<!-- WRITE&#45;&gt;WRITE -->
<g id="edge8" class="edge">
<title>WRITE&#45;&gt;WRITE</title>
<path fill="none" stroke="#444444" d="M378.93,-79.99C377.34,-90.34 382.2,-99.38 393.52,-99.38 400.24,-99.38 404.69,-96.19 406.85,-91.43"/>
<polygon fill="#444444" stroke="#444444" points="410.33,-91.82 407.95,-81.5 403.37,-91.05 410.33,-91.82"/>
<text xml:space="preserve" text-anchor="middle" x="393.52" y="-101.13" font-family="Helvetica,sans-Serif" font-size="10.00" fill="#222222"> aph_write</text>
</g>
<!-- RPW -->
<g id="node5" class="node">
<title>RPW</title>
<ellipse fill="#c8dfff" stroke="#444444" cx="625.49" cy="-23.69" rx="112.08" ry="23.69"/>
<text xml:space="preserve" text-anchor="middle" x="625.49" y="-25.04" font-family="Helvetica,sans-Serif" font-size="12.00">READ_PENDING_WRITE</text>
<text xml:space="preserve" text-anchor="middle" x="625.49" y="-12.29" font-family="Helvetica,sans-Serif" font-size="12.00">3&#39;b011</text>
</g>
<!-- WRITE&#45;&gt;RPW -->
<g id="edge7" class="edge">
<title>WRITE&#45;&gt;RPW</title>
<path fill="none" stroke="#444444" d="M431.72,-52.19C456.17,-48.57 489.45,-43.65 521.48,-38.92"/>
<polygon fill="#444444" stroke="#444444" points="521.86,-42.4 531.24,-37.47 520.84,-35.47 521.86,-42.4"/>
<text xml:space="preserve" text-anchor="middle" x="472.91" y="-50.32" font-family="Helvetica,sans-Serif" font-size="10.00" fill="#222222"> aph_read</text>
</g>
<!-- RPW&#45;&gt;IDLE -->
<g id="edge12" class="edge">
<title>RPW&#45;&gt;IDLE</title>
<path fill="none" stroke="#444444" d="M517.1,-17.42C509.76,-17.13 502.48,-16.88 495.41,-16.69 336.69,-12.39 292.52,-3.92 139.34,-45.69 134.15,-47.1 128.84,-48.98 123.67,-51.08"/>
<polygon fill="#444444" stroke="#444444" points="122.49,-47.77 114.74,-54.99 125.3,-54.18 122.49,-47.77"/>
<text xml:space="preserve" text-anchor="middle" x="314.13" y="-17.28" font-family="Helvetica,sans-Serif" font-size="10.00" fill="#222222"> idle</text>
</g>
<!-- RPW&#45;&gt;WRITE -->
<g id="edge11" class="edge">
<title>RPW&#45;&gt;WRITE</title>
<path fill="none" stroke="#444444" d="M515.23,-19.1C493.5,-20.29 471.04,-23.07 450.41,-28.44 443.96,-30.12 437.42,-32.65 431.19,-35.54"/>
<polygon fill="#444444" stroke="#444444" points="429.78,-32.33 422.44,-39.96 432.94,-38.58 429.78,-32.33"/>
<text xml:space="preserve" text-anchor="middle" x="472.91" y="-30.19" font-family="Helvetica,sans-Serif" font-size="10.00" fill="#222222"> aph_write</text>
</g>
<!-- RPW&#45;&gt;RPW -->
<g id="edge10" class="edge">
<title>RPW&#45;&gt;RPW</title>
<path fill="none" stroke="#444444" d="M597.22,-46.84C594.91,-56.83 604.33,-65.38 625.49,-65.38 638.05,-65.38 646.47,-62.36 650.76,-57.82"/>
<polygon fill="#444444" stroke="#444444" points="654.1,-58.87 653.35,-48.3 647.35,-57.03 654.1,-58.87"/>
<text xml:space="preserve" text-anchor="middle" x="625.49" y="-67.13" font-family="Helvetica,sans-Serif" font-size="10.00" fill="#222222"> aph_read</text>
</g>
</g>
</svg>
